<mxfile host="www.draw.io" modified="2023-04-21T16:53:17.698Z" agent="Mozilla/5.0 (Windows NT 10.0; Win64; x64) AppleWebKit/537.36 (KHTML, like Gecko) Chrome/112.0.0.0 Safari/537.36 Edg/112.0.1722.48" etag="2DE5Vuz0FdM_csiL3Y9F" version="21.2.1" type="device">
  <diagram name="Page-1" id="VF_4gUCtNLZkZZBgpR3Z">
    <mxGraphModel dx="1168" dy="674" grid="1" gridSize="10" guides="1" tooltips="1" connect="1" arrows="1" fold="1" page="1" pageScale="1" pageWidth="850" pageHeight="1100" math="0" shadow="0">
      <root>
        <mxCell id="0" />
        <mxCell id="1" parent="0" />
        <mxCell id="YcsztM9yKtZAUyWu0Oxk-61" style="edgeStyle=orthogonalEdgeStyle;rounded=0;orthogonalLoop=1;jettySize=auto;html=1;entryX=0.5;entryY=0;entryDx=0;entryDy=0;" edge="1" parent="1" source="YcsztM9yKtZAUyWu0Oxk-23" target="YcsztM9yKtZAUyWu0Oxk-41">
          <mxGeometry relative="1" as="geometry" />
        </mxCell>
        <mxCell id="YcsztM9yKtZAUyWu0Oxk-63" style="edgeStyle=orthogonalEdgeStyle;rounded=0;orthogonalLoop=1;jettySize=auto;html=1;entryX=0.5;entryY=0;entryDx=0;entryDy=0;" edge="1" parent="1" source="YcsztM9yKtZAUyWu0Oxk-23" target="YcsztM9yKtZAUyWu0Oxk-31">
          <mxGeometry relative="1" as="geometry" />
        </mxCell>
        <mxCell id="YcsztM9yKtZAUyWu0Oxk-23" value="&lt;b&gt;users&lt;/b&gt;" style="rounded=0;whiteSpace=wrap;html=1;" vertex="1" parent="1">
          <mxGeometry x="320" y="60" width="180" height="40" as="geometry" />
        </mxCell>
        <mxCell id="YcsztM9yKtZAUyWu0Oxk-24" value="" style="swimlane;startSize=0;" vertex="1" parent="1">
          <mxGeometry x="320" y="100" width="180" height="240" as="geometry">
            <mxRectangle x="140" y="80" width="50" height="40" as="alternateBounds" />
          </mxGeometry>
        </mxCell>
        <mxCell id="YcsztM9yKtZAUyWu0Oxk-25" value="_id" style="text;html=1;strokeColor=none;fillColor=none;align=left;verticalAlign=middle;whiteSpace=wrap;rounded=0;spacingLeft=10;" vertex="1" parent="YcsztM9yKtZAUyWu0Oxk-24">
          <mxGeometry width="180" height="40" as="geometry" />
        </mxCell>
        <mxCell id="YcsztM9yKtZAUyWu0Oxk-26" value="username" style="text;html=1;strokeColor=none;fillColor=none;align=left;verticalAlign=middle;whiteSpace=wrap;rounded=0;spacingLeft=10;" vertex="1" parent="YcsztM9yKtZAUyWu0Oxk-24">
          <mxGeometry y="40" width="170" height="40" as="geometry" />
        </mxCell>
        <mxCell id="YcsztM9yKtZAUyWu0Oxk-27" value="email" style="text;html=1;strokeColor=none;fillColor=none;align=left;verticalAlign=middle;whiteSpace=wrap;rounded=0;spacingLeft=10;" vertex="1" parent="YcsztM9yKtZAUyWu0Oxk-24">
          <mxGeometry y="80" width="180" height="40" as="geometry" />
        </mxCell>
        <mxCell id="YcsztM9yKtZAUyWu0Oxk-28" value="firstname" style="text;html=1;strokeColor=none;fillColor=none;align=left;verticalAlign=middle;whiteSpace=wrap;rounded=0;spacingLeft=10;" vertex="1" parent="YcsztM9yKtZAUyWu0Oxk-24">
          <mxGeometry y="120" width="180" height="40" as="geometry" />
        </mxCell>
        <mxCell id="YcsztM9yKtZAUyWu0Oxk-29" value="lastname" style="text;html=1;strokeColor=none;fillColor=none;align=left;verticalAlign=middle;whiteSpace=wrap;rounded=0;spacingLeft=10;" vertex="1" parent="YcsztM9yKtZAUyWu0Oxk-24">
          <mxGeometry y="160" width="180" height="40" as="geometry" />
        </mxCell>
        <mxCell id="YcsztM9yKtZAUyWu0Oxk-62" style="edgeStyle=orthogonalEdgeStyle;rounded=0;orthogonalLoop=1;jettySize=auto;html=1;entryX=0.5;entryY=0;entryDx=0;entryDy=0;" edge="1" parent="1" source="YcsztM9yKtZAUyWu0Oxk-30" target="YcsztM9yKtZAUyWu0Oxk-51">
          <mxGeometry relative="1" as="geometry" />
        </mxCell>
        <mxCell id="YcsztM9yKtZAUyWu0Oxk-30" value="password" style="text;html=1;strokeColor=none;fillColor=none;align=left;verticalAlign=middle;whiteSpace=wrap;rounded=0;spacingLeft=10;" vertex="1" parent="1">
          <mxGeometry x="320" y="300" width="180" height="40" as="geometry" />
        </mxCell>
        <mxCell id="YcsztM9yKtZAUyWu0Oxk-31" value="&lt;b&gt;lastestIssues&lt;/b&gt;" style="rounded=0;whiteSpace=wrap;html=1;" vertex="1" parent="1">
          <mxGeometry x="580" y="480" width="180" height="40" as="geometry" />
        </mxCell>
        <mxCell id="YcsztM9yKtZAUyWu0Oxk-32" value="" style="swimlane;startSize=0;" vertex="1" parent="1">
          <mxGeometry x="580" y="520" width="180" height="320" as="geometry">
            <mxRectangle x="140" y="80" width="50" height="40" as="alternateBounds" />
          </mxGeometry>
        </mxCell>
        <mxCell id="YcsztM9yKtZAUyWu0Oxk-33" value="_id" style="text;html=1;strokeColor=none;fillColor=none;align=left;verticalAlign=middle;whiteSpace=wrap;rounded=0;spacingLeft=10;" vertex="1" parent="YcsztM9yKtZAUyWu0Oxk-32">
          <mxGeometry width="180" height="40" as="geometry" />
        </mxCell>
        <mxCell id="YcsztM9yKtZAUyWu0Oxk-34" value="issue_name" style="text;html=1;strokeColor=none;fillColor=none;align=left;verticalAlign=middle;whiteSpace=wrap;rounded=0;spacingLeft=10;" vertex="1" parent="YcsztM9yKtZAUyWu0Oxk-32">
          <mxGeometry y="40" width="170" height="40" as="geometry" />
        </mxCell>
        <mxCell id="YcsztM9yKtZAUyWu0Oxk-35" value="publisher" style="text;html=1;strokeColor=none;fillColor=none;align=left;verticalAlign=middle;whiteSpace=wrap;rounded=0;spacingLeft=10;" vertex="1" parent="YcsztM9yKtZAUyWu0Oxk-32">
          <mxGeometry y="80" width="180" height="40" as="geometry" />
        </mxCell>
        <mxCell id="YcsztM9yKtZAUyWu0Oxk-36" value="writer" style="text;html=1;strokeColor=none;fillColor=none;align=left;verticalAlign=middle;whiteSpace=wrap;rounded=0;spacingLeft=10;" vertex="1" parent="YcsztM9yKtZAUyWu0Oxk-32">
          <mxGeometry y="120" width="180" height="40" as="geometry" />
        </mxCell>
        <mxCell id="YcsztM9yKtZAUyWu0Oxk-37" value="description" style="text;html=1;strokeColor=none;fillColor=none;align=left;verticalAlign=middle;whiteSpace=wrap;rounded=0;spacingLeft=10;" vertex="1" parent="YcsztM9yKtZAUyWu0Oxk-32">
          <mxGeometry y="160" width="180" height="40" as="geometry" />
        </mxCell>
        <mxCell id="YcsztM9yKtZAUyWu0Oxk-39" value="genre" style="text;html=1;strokeColor=none;fillColor=none;align=left;verticalAlign=middle;whiteSpace=wrap;rounded=0;spacingLeft=10;" vertex="1" parent="YcsztM9yKtZAUyWu0Oxk-32">
          <mxGeometry y="240" width="180" height="40" as="geometry" />
        </mxCell>
        <mxCell id="YcsztM9yKtZAUyWu0Oxk-40" value="issue_number" style="text;html=1;strokeColor=none;fillColor=none;align=left;verticalAlign=middle;whiteSpace=wrap;rounded=0;spacingLeft=10;" vertex="1" parent="YcsztM9yKtZAUyWu0Oxk-32">
          <mxGeometry y="280" width="180" height="40" as="geometry" />
        </mxCell>
        <mxCell id="YcsztM9yKtZAUyWu0Oxk-38" value="release_date" style="text;html=1;strokeColor=none;fillColor=none;align=left;verticalAlign=middle;whiteSpace=wrap;rounded=0;spacingLeft=10;" vertex="1" parent="1">
          <mxGeometry x="580" y="720" width="180" height="40" as="geometry" />
        </mxCell>
        <mxCell id="YcsztM9yKtZAUyWu0Oxk-41" value="&lt;b&gt;lastestIssues&lt;/b&gt;" style="rounded=0;whiteSpace=wrap;html=1;" vertex="1" parent="1">
          <mxGeometry x="70" y="480" width="180" height="40" as="geometry" />
        </mxCell>
        <mxCell id="YcsztM9yKtZAUyWu0Oxk-42" value="" style="swimlane;startSize=0;" vertex="1" parent="1">
          <mxGeometry x="70" y="520" width="180" height="320" as="geometry">
            <mxRectangle x="140" y="80" width="50" height="40" as="alternateBounds" />
          </mxGeometry>
        </mxCell>
        <mxCell id="YcsztM9yKtZAUyWu0Oxk-43" value="_id" style="text;html=1;strokeColor=none;fillColor=none;align=left;verticalAlign=middle;whiteSpace=wrap;rounded=0;spacingLeft=10;" vertex="1" parent="YcsztM9yKtZAUyWu0Oxk-42">
          <mxGeometry width="180" height="40" as="geometry" />
        </mxCell>
        <mxCell id="YcsztM9yKtZAUyWu0Oxk-44" value="issue_name" style="text;html=1;strokeColor=none;fillColor=none;align=left;verticalAlign=middle;whiteSpace=wrap;rounded=0;spacingLeft=10;" vertex="1" parent="YcsztM9yKtZAUyWu0Oxk-42">
          <mxGeometry y="40" width="170" height="40" as="geometry" />
        </mxCell>
        <mxCell id="YcsztM9yKtZAUyWu0Oxk-45" value="publisher" style="text;html=1;strokeColor=none;fillColor=none;align=left;verticalAlign=middle;whiteSpace=wrap;rounded=0;spacingLeft=10;" vertex="1" parent="YcsztM9yKtZAUyWu0Oxk-42">
          <mxGeometry y="80" width="180" height="40" as="geometry" />
        </mxCell>
        <mxCell id="YcsztM9yKtZAUyWu0Oxk-46" value="writer" style="text;html=1;strokeColor=none;fillColor=none;align=left;verticalAlign=middle;whiteSpace=wrap;rounded=0;spacingLeft=10;" vertex="1" parent="YcsztM9yKtZAUyWu0Oxk-42">
          <mxGeometry y="120" width="180" height="40" as="geometry" />
        </mxCell>
        <mxCell id="YcsztM9yKtZAUyWu0Oxk-47" value="description" style="text;html=1;strokeColor=none;fillColor=none;align=left;verticalAlign=middle;whiteSpace=wrap;rounded=0;spacingLeft=10;" vertex="1" parent="YcsztM9yKtZAUyWu0Oxk-42">
          <mxGeometry y="160" width="180" height="40" as="geometry" />
        </mxCell>
        <mxCell id="YcsztM9yKtZAUyWu0Oxk-48" value="genre" style="text;html=1;strokeColor=none;fillColor=none;align=left;verticalAlign=middle;whiteSpace=wrap;rounded=0;spacingLeft=10;" vertex="1" parent="YcsztM9yKtZAUyWu0Oxk-42">
          <mxGeometry y="240" width="180" height="40" as="geometry" />
        </mxCell>
        <mxCell id="YcsztM9yKtZAUyWu0Oxk-49" value="issue_number" style="text;html=1;strokeColor=none;fillColor=none;align=left;verticalAlign=middle;whiteSpace=wrap;rounded=0;spacingLeft=10;" vertex="1" parent="YcsztM9yKtZAUyWu0Oxk-42">
          <mxGeometry y="280" width="180" height="40" as="geometry" />
        </mxCell>
        <mxCell id="YcsztM9yKtZAUyWu0Oxk-50" value="release_date" style="text;html=1;strokeColor=none;fillColor=none;align=left;verticalAlign=middle;whiteSpace=wrap;rounded=0;spacingLeft=10;" vertex="1" parent="1">
          <mxGeometry x="70" y="720" width="180" height="40" as="geometry" />
        </mxCell>
        <mxCell id="YcsztM9yKtZAUyWu0Oxk-51" value="&lt;b&gt;lastestIssues&lt;/b&gt;" style="rounded=0;whiteSpace=wrap;html=1;" vertex="1" parent="1">
          <mxGeometry x="320" y="480" width="180" height="40" as="geometry" />
        </mxCell>
        <mxCell id="YcsztM9yKtZAUyWu0Oxk-52" value="" style="swimlane;startSize=0;" vertex="1" parent="1">
          <mxGeometry x="320" y="520" width="180" height="320" as="geometry">
            <mxRectangle x="140" y="80" width="50" height="40" as="alternateBounds" />
          </mxGeometry>
        </mxCell>
        <mxCell id="YcsztM9yKtZAUyWu0Oxk-53" value="_id" style="text;html=1;strokeColor=none;fillColor=none;align=left;verticalAlign=middle;whiteSpace=wrap;rounded=0;spacingLeft=10;" vertex="1" parent="YcsztM9yKtZAUyWu0Oxk-52">
          <mxGeometry width="180" height="40" as="geometry" />
        </mxCell>
        <mxCell id="YcsztM9yKtZAUyWu0Oxk-54" value="issue_name" style="text;html=1;strokeColor=none;fillColor=none;align=left;verticalAlign=middle;whiteSpace=wrap;rounded=0;spacingLeft=10;" vertex="1" parent="YcsztM9yKtZAUyWu0Oxk-52">
          <mxGeometry y="40" width="170" height="40" as="geometry" />
        </mxCell>
        <mxCell id="YcsztM9yKtZAUyWu0Oxk-55" value="publisher" style="text;html=1;strokeColor=none;fillColor=none;align=left;verticalAlign=middle;whiteSpace=wrap;rounded=0;spacingLeft=10;" vertex="1" parent="YcsztM9yKtZAUyWu0Oxk-52">
          <mxGeometry y="80" width="180" height="40" as="geometry" />
        </mxCell>
        <mxCell id="YcsztM9yKtZAUyWu0Oxk-56" value="writer" style="text;html=1;strokeColor=none;fillColor=none;align=left;verticalAlign=middle;whiteSpace=wrap;rounded=0;spacingLeft=10;" vertex="1" parent="YcsztM9yKtZAUyWu0Oxk-52">
          <mxGeometry y="120" width="180" height="40" as="geometry" />
        </mxCell>
        <mxCell id="YcsztM9yKtZAUyWu0Oxk-57" value="description" style="text;html=1;strokeColor=none;fillColor=none;align=left;verticalAlign=middle;whiteSpace=wrap;rounded=0;spacingLeft=10;" vertex="1" parent="YcsztM9yKtZAUyWu0Oxk-52">
          <mxGeometry y="160" width="180" height="40" as="geometry" />
        </mxCell>
        <mxCell id="YcsztM9yKtZAUyWu0Oxk-58" value="genre" style="text;html=1;strokeColor=none;fillColor=none;align=left;verticalAlign=middle;whiteSpace=wrap;rounded=0;spacingLeft=10;" vertex="1" parent="YcsztM9yKtZAUyWu0Oxk-52">
          <mxGeometry y="240" width="180" height="40" as="geometry" />
        </mxCell>
        <mxCell id="YcsztM9yKtZAUyWu0Oxk-59" value="issue_number" style="text;html=1;strokeColor=none;fillColor=none;align=left;verticalAlign=middle;whiteSpace=wrap;rounded=0;spacingLeft=10;" vertex="1" parent="YcsztM9yKtZAUyWu0Oxk-52">
          <mxGeometry y="280" width="180" height="40" as="geometry" />
        </mxCell>
        <mxCell id="YcsztM9yKtZAUyWu0Oxk-60" value="release_date" style="text;html=1;strokeColor=none;fillColor=none;align=left;verticalAlign=middle;whiteSpace=wrap;rounded=0;spacingLeft=10;" vertex="1" parent="1">
          <mxGeometry x="320" y="720" width="180" height="40" as="geometry" />
        </mxCell>
        <mxCell id="YcsztM9yKtZAUyWu0Oxk-64" style="edgeStyle=orthogonalEdgeStyle;rounded=0;orthogonalLoop=1;jettySize=auto;html=1;entryX=0;entryY=0.5;entryDx=0;entryDy=0;" edge="1" parent="1" source="YcsztM9yKtZAUyWu0Oxk-45" target="YcsztM9yKtZAUyWu0Oxk-55">
          <mxGeometry relative="1" as="geometry" />
        </mxCell>
        <mxCell id="YcsztM9yKtZAUyWu0Oxk-65" style="edgeStyle=orthogonalEdgeStyle;rounded=0;orthogonalLoop=1;jettySize=auto;html=1;entryX=1;entryY=0.5;entryDx=0;entryDy=0;" edge="1" parent="1" source="YcsztM9yKtZAUyWu0Oxk-57" target="YcsztM9yKtZAUyWu0Oxk-47">
          <mxGeometry relative="1" as="geometry" />
        </mxCell>
        <mxCell id="YcsztM9yKtZAUyWu0Oxk-66" style="edgeStyle=orthogonalEdgeStyle;rounded=0;orthogonalLoop=1;jettySize=auto;html=1;entryX=0;entryY=0.5;entryDx=0;entryDy=0;" edge="1" parent="1" source="YcsztM9yKtZAUyWu0Oxk-55" target="YcsztM9yKtZAUyWu0Oxk-35">
          <mxGeometry relative="1" as="geometry" />
        </mxCell>
        <mxCell id="YcsztM9yKtZAUyWu0Oxk-67" style="edgeStyle=orthogonalEdgeStyle;rounded=0;orthogonalLoop=1;jettySize=auto;html=1;entryX=1;entryY=0.5;entryDx=0;entryDy=0;" edge="1" parent="1" source="YcsztM9yKtZAUyWu0Oxk-37" target="YcsztM9yKtZAUyWu0Oxk-57">
          <mxGeometry relative="1" as="geometry" />
        </mxCell>
        <mxCell id="YcsztM9yKtZAUyWu0Oxk-68" style="edgeStyle=orthogonalEdgeStyle;rounded=0;orthogonalLoop=1;jettySize=auto;html=1;entryX=0.5;entryY=1;entryDx=0;entryDy=0;" edge="1" parent="1" source="YcsztM9yKtZAUyWu0Oxk-49" target="YcsztM9yKtZAUyWu0Oxk-40">
          <mxGeometry relative="1" as="geometry">
            <Array as="points">
              <mxPoint x="160" y="860" />
              <mxPoint x="670" y="860" />
            </Array>
          </mxGeometry>
        </mxCell>
        <mxCell id="YcsztM9yKtZAUyWu0Oxk-70" style="edgeStyle=orthogonalEdgeStyle;rounded=0;orthogonalLoop=1;jettySize=auto;html=1;exitX=0.25;exitY=1;exitDx=0;exitDy=0;entryX=0.75;entryY=1;entryDx=0;entryDy=0;" edge="1" parent="1" source="YcsztM9yKtZAUyWu0Oxk-40" target="YcsztM9yKtZAUyWu0Oxk-49">
          <mxGeometry relative="1" as="geometry">
            <Array as="points">
              <mxPoint x="625" y="880" />
              <mxPoint x="205" y="880" />
            </Array>
          </mxGeometry>
        </mxCell>
      </root>
    </mxGraphModel>
  </diagram>
</mxfile>
